<svg xmlns="http://www.w3.org/2000/svg" version="1.1" xmlns:xlink="http://www.w3.org/1999/xlink" xmlns:svgjs="http://svgjs.dev/svgjs" width="1500" height="1500" viewBox="0 0 1500 1500"><rect width="1500" height="1500" fill="#ffffff"></rect><g transform="matrix(0.6666666666666666,0,0,0.6666666666666666,249.39393939393938,626.5116863778848)"><svg viewBox="0 0 396 98" data-background-color="#f5ff00" preserveAspectRatio="xMidYMid meet" height="371" width="1500" xmlns="http://www.w3.org/2000/svg" xmlns:xlink="http://www.w3.org/1999/xlink"><g id="tight-bounds" transform="matrix(1,0,0,1,0.2400000000000091,-0.07066818746372405)"><svg viewBox="0 0 395.52 98.14133637492743" height="98.14133637492743" width="395.52"><g><svg viewBox="0 0 542.5467248519386 134.62343401802516" height="98.14133637492743" width="395.52"><g transform="matrix(1,0,0,1,0,18.605698912766144)"><svg viewBox="0 0 395.52 97.41203619249288" height="97.41203619249288" width="395.52"><g id="textblocktransform"><svg viewBox="0 0 395.52 97.41203619249288" height="97.41203619249288" width="395.52" id="textblock"><g><svg viewBox="0 0 395.52 52.53939762582164" height="52.53939762582164" width="395.52"><g transform="matrix(1,0,0,1,0,0)"><svg width="395.52" viewBox="4.2 -32.64 248.82000000000002 33.06" height="52.53939762582164" data-palette-color="#000000"><path d="M5.96 0.07Q4.2 0.07 4.2-0.88L4.2-0.88 4.2-29.08Q4.2-29.76 4.52-30.07 4.83-30.37 5.52-30.37L5.52-30.37 19.19-30.37Q19.65-30.37 19.85-30.07 20.04-29.76 20.04-29.08L20.04-29.08 20.04-28.37Q20.04-27.71 19.85-27.39 19.65-27.08 19.19-27.08L19.19-27.08 8.03-27.08 8.03-17.19 18.41-17.19Q18.85-17.19 19.07-16.87 19.29-16.55 19.29-15.87L19.29-15.87 19.29-15.21Q19.29-14.53 19.07-14.22 18.85-13.92 18.41-13.92L18.41-13.92 8.03-13.92 8.03-0.88Q8.03 0.07 6.3 0.07L6.3 0.07 5.96 0.07ZM27.49 0.07Q26.56 0.07 26.14-0.16 25.73-0.39 25.73-0.88L25.73-0.88 25.73-16.11Q25.73-18.95 25.46-20.2 25.19-21.46 25.19-21.58L25.19-21.58Q25.19-22.12 26.01-22.35 26.83-22.58 27.56-22.58L27.56-22.58Q28.15-22.58 28.44-21.96 28.73-21.34 28.95-20.21L28.95-20.21 29.07-19.7Q31.39-22.95 34.1-22.95L34.1-22.95Q35.35-22.95 35.98-22.5 36.62-22.05 36.62-21.29L36.62-21.29Q36.62-20.56 36.36-19.74 36.11-18.92 35.76-18.92L35.76-18.92Q35.59-18.92 35.15-19.07L35.15-19.07Q34.76-19.24 34.37-19.32 33.98-19.41 33.37-19.41L33.37-19.41Q32.37-19.41 31.48-18.82 30.59-18.24 29.98-17.53 29.37-16.82 29.37-16.75L29.37-16.75 29.37-0.88Q29.37-0.39 28.95-0.16 28.54 0.07 27.66 0.07L27.66 0.07 27.49 0.07ZM47.24 0.24Q43.92 0.24 41.87-1.39 39.81-3.03 39.81-6.25L39.81-6.25Q39.81-9.64 41.89-11.36 43.96-13.09 46.96-13.59 49.95-14.09 54.22-14.16L54.22-14.16 54.22-16.21Q54.22-17.85 53.11-18.84 52-19.82 49.46-19.82L49.46-19.82Q47.53-19.82 46.08-19.37 44.62-18.92 43.35-18.29L43.35-18.29Q42.82-18.02 42.7-18.02L42.7-18.02Q42.4-18.02 42.05-18.44 41.69-18.87 41.44-19.41 41.18-19.95 41.18-20.19L41.18-20.19Q41.18-20.75 42.34-21.41 43.5-22.07 45.38-22.51 47.26-22.95 49.31-22.95L49.31-22.95Q53.39-22.95 55.63-21.17 57.88-19.38 57.88-16.16L57.88-16.16 57.88-6.42Q57.88-3.59 58.14-2.33 58.39-1.07 58.39-0.95L58.39-0.95Q58.39-0.42 57.58-0.18 56.76 0.05 56.05 0.05L56.05 0.05Q55.46 0.05 55.18-0.61 54.9-1.27 54.63-2.51L54.63-2.51 54.54-3Q53.19-1.51 51.37-0.63 49.56 0.24 47.24 0.24L47.24 0.24ZM47.43-2.91Q49.58-2.91 51.09-3.69 52.61-4.47 54.22-5.91L54.22-5.91 54.22-11.04Q51-11.01 48.92-10.77 46.85-10.52 45.28-9.53 43.72-8.54 43.72-6.47L43.72-6.47Q43.72-4.74 44.66-3.82 45.6-2.91 47.43-2.91L47.43-2.91ZM88.08-22.95Q90.79-22.95 92.84-21.41 94.89-19.87 94.89-15.94L94.89-15.94 94.89-0.88Q94.89-0.39 94.47-0.16 94.06 0.07 93.16 0.07L93.16 0.07 93.01 0.07Q92.08 0.07 91.67-0.16 91.25-0.39 91.25-0.88L91.25-0.88 91.25-15.58Q91.25-17.55 90.19-18.68 89.13-19.8 87.08-19.8L87.08-19.8Q85.37-19.8 83.99-18.81 82.61-17.82 81.76-16.75L81.76-16.75Q81.8-16.16 81.8-15.87L81.8-15.87 81.8-0.88Q81.8 0.07 80.05 0.07L80.05 0.07 79.88 0.07Q78.14 0.07 78.14-0.88L78.14-0.88 78.14-15.58Q78.14-17.55 77.08-18.68 76.02-19.8 73.97-19.8L73.97-19.8Q72.55-19.8 71.38-19.13 70.21-18.46 69.44-17.68 68.67-16.89 68.67-16.8L68.67-16.8 68.67-0.88Q68.67-0.39 68.27-0.16 67.86 0.07 66.96 0.07L66.96 0.07 66.76 0.07Q65.86 0.07 65.46-0.16 65.06-0.39 65.06-0.88L65.06-0.88 65.06-16.11Q65.06-18.95 64.79-20.2 64.52-21.46 64.52-21.58L64.52-21.58Q64.52-22.12 65.34-22.35 66.15-22.58 66.86-22.58L66.86-22.58Q67.47-22.58 67.77-21.92 68.06-21.26 68.19-20.58 68.33-19.9 68.38-19.7L68.38-19.7Q69.57-21.09 71.31-22.02 73.04-22.95 74.97-22.95L74.97-22.95Q76.95-22.95 78.65-22.16 80.36-21.36 81.17-19.36L81.17-19.36Q82.51-20.95 84.32-21.95 86.13-22.95 88.08-22.95L88.08-22.95ZM111.2 0.24Q105.8 0.24 103.18-2.58 100.55-5.4 100.55-11.21L100.55-11.21Q100.55-16.97 103.12-19.96 105.68-22.95 110.66-22.95L110.66-22.95Q115.1-22.95 117.36-20.07 119.62-17.19 119.62-11.62L119.62-11.62Q119.62-11.38 119.36-10.95 119.11-10.52 118.75-10.19 118.4-9.86 118.15-9.86L118.15-9.86 104.46-9.86Q104.73-6.23 106.33-4.55 107.92-2.88 111.15-2.88L111.15-2.88Q112.95-2.88 114.26-3.32 115.57-3.76 116.79-4.39L116.79-4.39Q116.91-4.44 117.15-4.57 117.4-4.69 117.49-4.69L117.49-4.69Q117.76-4.69 118.12-4.26 118.47-3.83 118.73-3.31 118.98-2.78 118.98-2.54L118.98-2.54Q118.98-2 117.91-1.34 116.84-0.68 115.04-0.22 113.25 0.24 111.2 0.24L111.2 0.24ZM104.46-12.99L115.74-12.99Q115.74-19.82 110.54-19.82L110.54-19.82Q104.95-19.82 104.46-12.99L104.46-12.99ZM137.95 0.07Q136.19 0.07 136.19-0.88L136.19-0.88 136.19-29.08Q136.19-29.76 136.51-30.07 136.83-30.37 137.51-30.37L137.51-30.37 151.18-30.37Q151.65-30.37 151.84-30.07 152.04-29.76 152.04-29.08L152.04-29.08 152.04-28.37Q152.04-27.71 151.84-27.39 151.65-27.08 151.18-27.08L151.18-27.08 140.02-27.08 140.02-17.19 150.4-17.19Q150.84-17.19 151.06-16.87 151.28-16.55 151.28-15.87L151.28-15.87 151.28-15.21Q151.28-14.53 151.06-14.22 150.84-13.92 150.4-13.92L150.4-13.92 140.02-13.92 140.02-0.88Q140.02 0.07 138.29 0.07L138.29 0.07 137.95 0.07ZM164.14 0.24Q160.82 0.24 158.94-1.62 157.06-3.49 157.06-6.79L157.06-6.79 157.06-21.83Q157.06-22.78 158.82-22.78L158.82-22.78 158.99-22.78Q160.72-22.78 160.72-21.83L160.72-21.83 160.72-7.13Q160.72-5.13 161.88-4.02 163.04-2.91 165.14-2.91L165.14-2.91Q166.61-2.91 168.07-3.72 169.54-4.54 170.61-5.96L170.61-5.96 170.61-21.83Q170.61-22.78 172.35-22.78L172.35-22.78 172.52-22.78Q174.27-22.78 174.27-21.83L174.27-21.83 174.27-6.42Q174.27-3.59 174.52-2.33 174.76-1.07 174.76-0.95L174.76-0.95Q174.76-0.42 173.96-0.18 173.15 0.05 172.44 0.05L172.44 0.05Q171.83 0.05 171.54-0.65 171.25-1.34 171.11-2.08 170.98-2.81 170.93-3L170.93-3Q169.56-1.46 167.77-0.61 165.97 0.24 164.14 0.24L164.14 0.24ZM186.41 0.42Q184.57 0.42 182.99-0.05 181.4-0.51 180.46-1.18 179.52-1.86 179.52-2.37L179.52-2.37Q179.52-2.61 179.78-3.15 180.03-3.69 180.39-4.11 180.74-4.54 181.03-4.54L181.03-4.54Q181.11-4.54 181.47-4.3L181.47-4.3Q182.45-3.66 183.54-3.22 184.62-2.78 186.14-2.78L186.14-2.78Q190.39-2.78 190.39-6.3L190.39-6.3Q190.39-7.3 189.98-7.98 189.58-8.67 188.64-9.19 187.7-9.72 186.06-10.21L186.06-10.21Q183.72-10.89 182.41-11.77 181.11-12.65 180.57-13.83 180.03-15.01 180.03-16.7L180.03-16.7Q180.03-18.51 180.95-19.95 181.86-21.39 183.51-22.19 185.16-23 187.24-23L187.24-23Q188.68-23 190.01-22.73 191.34-22.46 192.16-22.03 192.97-21.61 192.97-21.14L192.97-21.14Q192.97-20.8 192.74-20.23 192.51-19.65 192.17-19.23 191.83-18.8 191.56-18.8L191.56-18.8Q191.51-18.8 190.95-19.1 190.39-19.41 189.52-19.67 188.65-19.92 187.6-19.92L187.6-19.92Q185.94-19.92 184.86-19.18 183.77-18.43 183.77-17.19L183.77-17.19Q183.77-15.72 184.55-14.84 185.33-13.96 187.14-13.4L187.14-13.4Q189.92-12.55 191.39-11.69 192.85-10.84 193.47-9.61 194.1-8.37 194.1-6.37L194.1-6.37Q194.1-4.47 193.07-2.92 192.05-1.37 190.29-0.48 188.53 0.42 186.41 0.42L186.41 0.42ZM201.42-28.17Q199.68-28.17 199.68-29.13L199.68-29.13 199.68-31.69Q199.68-32.64 201.42-32.64L201.42-32.64 201.93-32.64Q203.69-32.64 203.69-31.69L203.69-31.69 203.69-29.13Q203.69-28.17 201.93-28.17L201.93-28.17 201.42-28.17ZM201.59 0.07Q199.86 0.07 199.86-0.88L199.86-0.88 199.86-21.83Q199.86-22.78 201.59-22.78L201.59-22.78 201.76-22.78Q203.52-22.78 203.52-21.83L203.52-21.83 203.52-0.88Q203.52 0.07 201.76 0.07L201.76 0.07 201.59 0.07ZM219.85 0.24Q214.94 0.24 212.37-2.7 209.79-5.64 209.79-11.25L209.79-11.25Q209.79-16.87 212.4-19.91 215.01-22.95 219.85-22.95L219.85-22.95Q224.63-22.95 227.17-19.93 229.71-16.92 229.71-11.25L229.71-11.25Q229.71-5.62 227.21-2.69 224.71 0.24 219.85 0.24L219.85 0.24ZM219.73-2.88Q222.9-2.88 224.41-4.94 225.93-7.01 225.93-11.33L225.93-11.33Q225.93-15.67 224.41-17.75 222.9-19.82 219.73-19.82L219.73-19.82Q216.58-19.82 215.09-17.76 213.6-15.7 213.6-11.33L213.6-11.33Q213.6-6.98 215.08-4.93 216.55-2.88 219.73-2.88L219.73-2.88ZM237.59 0.07Q236.67 0.07 236.25-0.16 235.84-0.39 235.84-0.88L235.84-0.88 235.84-16.11Q235.84-18.95 235.57-20.2 235.3-21.46 235.3-21.58L235.3-21.58Q235.3-22.12 236.12-22.35 236.94-22.58 237.67-22.58L237.67-22.58Q238.28-22.58 238.57-21.92 238.86-21.26 239-20.58 239.13-19.9 239.18-19.7L239.18-19.7Q240.55-21.24 242.34-22.09 244.14-22.95 245.97-22.95L245.97-22.95Q249.29-22.95 251.16-21.08 253.02-19.21 253.02-15.94L253.02-15.94 253.02-0.88Q253.02-0.39 252.61-0.16 252.19 0.07 251.29 0.07L251.29 0.07 251.1 0.07Q250.22 0.07 249.8-0.16 249.39-0.39 249.39-0.88L249.39-0.88 249.39-15.58Q249.39-17.58 248.23-18.69 247.07-19.8 244.97-19.8L244.97-19.8Q243.5-19.8 242.03-18.98 240.55-18.16 239.47-16.75L239.47-16.75 239.47-0.88Q239.47-0.39 239.06-0.16 238.64 0.07 237.77 0.07L237.77 0.07 237.59 0.07Z" opacity="1" transform="matrix(1,0,0,1,0,0)" fill="#000000" class="wordmark-text-0" data-fill-palette-color="primary" id="text-0"></path></svg></g></svg></g><g transform="matrix(1,0,0,1,205.30828539328766,64.94268845973511)"><svg viewBox="0 0 190.21171460671232 32.469347732757775" height="32.469347732757775" width="190.21171460671232"><g transform="matrix(1,0,0,1,0,0)"><svg width="190.21171460671232" viewBox="4.25 -37 278.83 47.6" height="32.469347732757775" data-palette-color="#000000"><path d="M4.25 10L4.25-25.8 8.25-25.8 8.25-21.6 8.45-21.6Q9.45-24.05 11.38-25.23 13.3-26.4 16-26.4L16-26.4Q18.4-26.4 20.35-25.45 22.3-24.5 23.68-22.75 25.05-21 25.78-18.5 26.5-16 26.5-12.9L26.5-12.9Q26.5-9.8 25.78-7.3 25.05-4.8 23.68-3.05 22.3-1.3 20.35-0.35 18.4 0.6 16 0.6L16 0.6Q10.75 0.6 8.45-4.2L8.45-4.2 8.25-4.2 8.25 10 4.25 10ZM14.9-3L14.9-3Q18.3-3 20.25-5.13 22.2-7.25 22.2-10.7L22.2-10.7 22.2-15.1Q22.2-18.55 20.25-20.68 18.3-22.8 14.9-22.8L14.9-22.8Q13.55-22.8 12.33-22.43 11.1-22.05 10.2-21.4 9.3-20.75 8.78-19.83 8.25-18.9 8.25-17.85L8.25-17.85 8.25-8.25Q8.25-7 8.78-6.03 9.3-5.05 10.2-4.38 11.1-3.7 12.33-3.35 13.55-3 14.9-3ZM33.25 0L33.25-37 37.25-37 37.25-21.6 37.45-21.6Q38.4-23.8 40.12-25.1 41.85-26.4 44.75-26.4L44.75-26.4Q48.75-26.4 51.07-23.83 53.4-21.25 53.4-16.55L53.4-16.55 53.4 0 49.4 0 49.4-15.85Q49.4-22.8 43.55-22.8L43.55-22.8Q42.35-22.8 41.22-22.5 40.1-22.2 39.2-21.6 38.3-21 37.77-20.08 37.25-19.15 37.25-17.9L37.25-17.9 37.25 0 33.25 0ZM71.4 0.6L71.4 0.6Q68.8 0.6 66.65-0.35 64.5-1.3 62.97-3.08 61.45-4.85 60.6-7.33 59.75-9.8 59.75-12.9L59.75-12.9Q59.75-15.95 60.6-18.45 61.45-20.95 62.97-22.73 64.5-24.5 66.65-25.45 68.8-26.4 71.4-26.4L71.4-26.4Q74-26.4 76.12-25.45 78.25-24.5 79.8-22.73 81.34-20.95 82.2-18.45 83.05-15.95 83.05-12.9L83.05-12.9Q83.05-9.8 82.2-7.33 81.34-4.85 79.8-3.08 78.25-1.3 76.12-0.35 74 0.6 71.4 0.6ZM71.4-2.95L71.4-2.95Q74.65-2.95 76.7-4.95 78.75-6.95 78.75-11.05L78.75-11.05 78.75-14.75Q78.75-18.85 76.7-20.85 74.65-22.85 71.4-22.85L71.4-22.85Q68.15-22.85 66.09-20.85 64.05-18.85 64.05-14.75L64.05-14.75 64.05-11.05Q64.05-6.95 66.09-4.95 68.15-2.95 71.4-2.95ZM100.34 0L95.34 0Q93.24 0 92.17-1.18 91.09-2.35 91.09-4.25L91.09-4.25 91.09-22.3 86.84-22.3 86.84-25.8 89.24-25.8Q90.54-25.8 91.02-26.33 91.49-26.85 91.49-28.15L91.49-28.15 91.49-32.95 95.09-32.95 95.09-25.8 100.74-25.8 100.74-22.3 95.09-22.3 95.09-3.5 100.34-3.5 100.34 0ZM116.74 0.6L116.74 0.6Q114.14 0.6 111.99-0.35 109.84-1.3 108.32-3.08 106.79-4.85 105.94-7.33 105.09-9.8 105.09-12.9L105.09-12.9Q105.09-15.95 105.94-18.45 106.79-20.95 108.32-22.73 109.84-24.5 111.99-25.45 114.14-26.4 116.74-26.4L116.74-26.4Q119.34-26.4 121.47-25.45 123.59-24.5 125.14-22.73 126.69-20.95 127.54-18.45 128.39-15.95 128.39-12.9L128.39-12.9Q128.39-9.8 127.54-7.33 126.69-4.85 125.14-3.08 123.59-1.3 121.47-0.35 119.34 0.6 116.74 0.6ZM116.74-2.95L116.74-2.95Q119.99-2.95 122.04-4.95 124.09-6.95 124.09-11.05L124.09-11.05 124.09-14.75Q124.09-18.85 122.04-20.85 119.99-22.85 116.74-22.85L116.74-22.85Q113.49-22.85 111.44-20.85 109.39-18.85 109.39-14.75L109.39-14.75 109.39-11.05Q109.39-6.95 111.44-4.95 113.49-2.95 116.74-2.95ZM156.74 2.85L156.74 2.85Q156.74 6.85 153.61 8.72 150.49 10.6 144.24 10.6L144.24 10.6Q138.19 10.6 135.54 8.95 132.89 7.3 132.89 4.25L132.89 4.25Q132.89 2.15 133.99 0.98 135.09-0.2 136.99-0.75L136.99-0.75 136.99-1.3Q134.69-2.4 134.69-4.9L134.69-4.9Q134.69-6.85 135.94-7.88 137.19-8.9 139.14-9.4L139.14-9.4 139.14-9.6Q136.84-10.7 135.56-12.75 134.29-14.8 134.29-17.5L134.29-17.5Q134.29-19.45 134.99-21.1 135.69-22.75 136.96-23.93 138.24-25.1 140.01-25.75 141.79-26.4 143.99-26.4L143.99-26.4Q146.74-26.4 148.89-25.4L148.89-25.4 148.89-25.85Q148.89-27.35 149.59-28.33 150.29-29.3 151.89-29.3L151.89-29.3 155.74-29.3 155.74-25.8 150.84-25.8 150.84-24.15Q152.24-22.95 153.01-21.28 153.79-19.6 153.79-17.5L153.79-17.5Q153.79-15.55 153.09-13.9 152.39-12.25 151.11-11.08 149.84-9.9 148.04-9.25 146.24-8.6 144.04-8.6L144.04-8.6Q142.79-8.6 141.54-8.85L141.54-8.85Q140.24-8.5 139.19-7.83 138.14-7.15 138.14-5.95L138.14-5.95Q138.14-4.8 139.24-4.4 140.34-4 142.09-4L142.09-4 147.59-4Q152.39-4 154.56-2.18 156.74-0.35 156.74 2.85ZM152.99 3.15L152.99 3.15Q152.99 1.6 151.81 0.68 150.64-0.25 147.64-0.25L147.64-0.25 139.04-0.25Q136.64 0.85 136.64 3.25L136.64 3.25Q136.64 4.95 137.91 6.15 139.19 7.35 142.24 7.35L142.24 7.35 145.94 7.35Q149.29 7.35 151.14 6.3 152.99 5.25 152.99 3.15ZM144.04-11.8L144.04-11.8Q146.59-11.8 148.09-13.03 149.59-14.25 149.59-16.8L149.59-16.8 149.59-18.2Q149.59-20.75 148.09-21.98 146.59-23.2 144.04-23.2L144.04-23.2Q141.49-23.2 139.99-21.98 138.49-20.75 138.49-18.2L138.49-18.2 138.49-16.8Q138.49-14.25 139.99-13.03 141.49-11.8 144.04-11.8ZM165.39 0L161.39 0 161.39-25.8 165.39-25.8 165.39-21.05 165.64-21.05Q166.34-22.9 168.14-24.35 169.94-25.8 173.09-25.8L173.09-25.8 174.64-25.8 174.64-21.8 172.29-21.8Q169.04-21.8 167.21-20.58 165.39-19.35 165.39-17.5L165.39-17.5 165.39 0ZM200.53 0L198.28 0Q196.03 0 195.06-1.2 194.08-2.4 193.83-4.2L193.83-4.2 193.58-4.2Q192.73-1.8 190.78-0.6 188.83 0.6 186.13 0.6L186.13 0.6Q182.03 0.6 179.76-1.5 177.48-3.6 177.48-7.2L177.48-7.2Q177.48-10.85 180.16-12.8 182.83-14.75 188.48-14.75L188.48-14.75 193.58-14.75 193.58-17.3Q193.58-20.05 192.08-21.5 190.58-22.95 187.48-22.95L187.48-22.95Q185.13-22.95 183.56-21.9 181.98-20.85 180.93-19.1L180.93-19.1 178.53-21.35Q179.58-23.45 181.88-24.93 184.18-26.4 187.68-26.4L187.68-26.4Q192.38-26.4 194.98-24.1 197.58-21.8 197.58-17.7L197.58-17.7 197.58-3.5 200.53-3.5 200.53 0ZM186.78-2.8L186.78-2.8Q188.28-2.8 189.53-3.15 190.78-3.5 191.68-4.15 192.58-4.8 193.08-5.65 193.58-6.5 193.58-7.5L193.58-7.5 193.58-11.75 188.28-11.75Q184.83-11.75 183.26-10.75 181.68-9.75 181.68-7.85L181.68-7.85 181.68-6.8Q181.68-4.9 183.06-3.85 184.43-2.8 186.78-2.8ZM206.23 10L206.23-25.8 210.23-25.8 210.23-21.6 210.43-21.6Q211.43-24.05 213.36-25.23 215.28-26.4 217.98-26.4L217.98-26.4Q220.38-26.4 222.33-25.45 224.28-24.5 225.66-22.75 227.03-21 227.76-18.5 228.48-16 228.48-12.9L228.48-12.9Q228.48-9.8 227.76-7.3 227.03-4.8 225.66-3.05 224.28-1.3 222.33-0.35 220.38 0.6 217.98 0.6L217.98 0.6Q212.73 0.6 210.43-4.2L210.43-4.2 210.23-4.2 210.23 10 206.23 10ZM216.88-3L216.88-3Q220.28-3 222.23-5.13 224.18-7.25 224.18-10.7L224.18-10.7 224.18-15.1Q224.18-18.55 222.23-20.68 220.28-22.8 216.88-22.8L216.88-22.8Q215.53-22.8 214.31-22.43 213.08-22.05 212.18-21.4 211.28-20.75 210.76-19.83 210.23-18.9 210.23-17.85L210.23-17.85 210.23-8.25Q210.23-7 210.76-6.03 211.28-5.05 212.18-4.38 213.08-3.7 214.31-3.35 215.53-3 216.88-3ZM235.23 0L235.23-37 239.23-37 239.23-21.6 239.43-21.6Q240.38-23.8 242.1-25.1 243.83-26.4 246.73-26.4L246.73-26.4Q250.73-26.4 253.05-23.83 255.38-21.25 255.38-16.55L255.38-16.55 255.38 0 251.38 0 251.38-15.85Q251.38-22.8 245.53-22.8L245.53-22.8Q244.33-22.8 243.2-22.5 242.08-22.2 241.18-21.6 240.28-21 239.75-20.08 239.23-19.15 239.23-17.9L239.23-17.9 239.23 0 235.23 0ZM272.88-8.25L279.13-25.8 283.08-25.8 271.53 6Q271.08 7.15 270.63 7.93 270.18 8.7 269.53 9.15 268.88 9.6 267.9 9.8 266.93 10 265.53 10L265.53 10 263.48 10 263.48 6.5 267.53 6.5 269.48 1 259.83-25.8 263.83-25.8 270.03-8.25 271.23-4.05 271.48-4.05 272.88-8.25Z" opacity="1" transform="matrix(1,0,0,1,0,0)" fill="#000000" class="slogan-text-1" data-fill-palette-color="secondary" id="text-1"></path></svg></g></svg></g></svg></g></svg></g><g transform="matrix(1,0,0,1,407.9232908339134,0)"><svg viewBox="0 0 134.62343401802516 134.62343401802516" height="134.62343401802516" width="134.62343401802516"><g data-palette-color="#000000"><rect width="36.79707196492688" height="134.62343401802516" fill="#000000" stroke="transparent" data-fill-palette-color="accent" x="0" fill-opacity="1"></rect><rect width="36.79707196492688" height="134.62343401802516" fill="#000000" stroke="transparent" data-fill-palette-color="accent" x="44.87447800600839" fill-opacity="0.75"></rect><rect width="36.79707196492688" height="134.62343401802516" fill="#000000" stroke="transparent" data-fill-palette-color="accent" x="89.74895601201678" fill-opacity="0.5"></rect></g></svg></g></svg></g><defs></defs></svg><rect width="395.52" height="98.14133637492743" fill="none" stroke="none" visibility="hidden"></rect></g></svg></g></svg>